<svg xmlns="http://www.w3.org/2000/svg" id="Utility_MyAccount" width="21.438" height="21.438" viewBox="0 0 21.438 21.438">
  <path id="Path_26152" data-name="Path 26152" d="M10.719,20.471A9.753,9.753,0,1,0,.966,10.719,9.753,9.753,0,0,0,10.719,20.471Zm0,.966A10.719,10.719,0,1,0,0,10.719,10.719,10.719,0,0,0,10.719,21.438Z" fill="#ffffff" fill-rule="evenodd"/>
  <path id="Path_26153" data-name="Path 26153" d="M23.154,14.651A3.611,3.611,0,1,1,19.544,11,3.631,3.631,0,0,1,23.154,14.651Zm-.979,0a2.632,2.632,0,1,1-2.631-2.661A2.646,2.646,0,0,1,22.175,14.651Z" transform="translate(-8.817 -6.087)" fill="#ffffff" fill-rule="evenodd"/>
  <path id="Path_26154" data-name="Path 26154" d="M16.811,29.243l5.8,2.157v1.305l-5.806-2.159L11,32.706V31.4l5.8-2.157v0l.005,0,.005,0Z" transform="translate(-6.087 -16.181)" fill="#ffffff"/>
</svg>